<svg id="Color" viewBox="0 0 512 512" xmlns="http://www.w3.org/2000/svg"><g id="_41._Wallet_without_money" data-name="41. Wallet without money"><path d="m488 284v84h-98a32 32 0 0 1 -32-32v-20a32 32 0 0 1 32-32z" fill="#a07765"/><path d="m430 164h26a32 32 0 0 1 32 32v88h-98a32 32 0 0 0 -32 32v20a32 32 0 0 0 32 32h98v88a32 32 0 0 1 -32 32h-400a32 32 0 0 1 -32-32v-300a56 56 0 0 1 56-56h318a32 32 0 0 1 32 32z" fill="#c79a83"/><path d="m430 132h-316a56 56 0 0 0 -56 56v268.42c0 21.89-32.88 23.05-34 1.19 0-1.25 0-302.61 0-301.61a56 56 0 0 1 56-56h318a32 32 0 0 1 32 32z" fill="#e0b7a3"/><path d="m430 132v32h-328a16 16 0 0 1 0-32z" fill="#a07765"/><path d="m456 148h-10v-16a48.05 48.05 0 0 0 -48-48h-318a72.08 72.08 0 0 0 -72 72v300a48.05 48.05 0 0 0 48 48h400a48.05 48.05 0 0 0 48-48v-260a48.05 48.05 0 0 0 -48-48zm16 204h-82a16 16 0 0 1 -16-16v-20a16 16 0 0 1 16-16h82zm-16 120h-400a16 16 0 0 1 -16-16v-300a40 40 0 0 1 40-40h318a16 16 0 0 1 16 16v16h-312a16 16 0 0 0 0 32h354a16 16 0 0 1 16 16v72h-82a48.05 48.05 0 0 0 -48 48v20a48.05 48.05 0 0 0 48 48h82v72a16 16 0 0 1 -16 16zm-314-248a16 16 0 0 1 -16 16h-24a16 16 0 0 1 0-32h24a16 16 0 0 1 16 16zm100 0a16 16 0 0 1 -16 16h-24a16 16 0 0 1 0-32h24a16 16 0 0 1 16 16zm-100 204a16 16 0 0 1 -16 16h-24a16 16 0 0 1 0-32h24a16 16 0 0 1 16 16zm100 0a16 16 0 0 1 -16 16h-24a16 16 0 0 1 0-32h24a16 16 0 0 1 16 16z" fill="#555c79"/></g></svg>