<svg id="Color" viewBox="0 0 512 512" xmlns="http://www.w3.org/2000/svg"><g id="_42._Wallet_with_money" data-name="42. Wallet with money"><path d="m430 164h26a32 32 0 0 1 32 32v88h-98a32 32 0 0 0 -32 32v20a32 32 0 0 0 32 32h98v88a32 32 0 0 1 -32 32h-400a32 32 0 0 1 -32-32v-300a56 56 0 0 1 56-56h318a32 32 0 0 1 32 32z" fill="#c79a83"/><path d="m430 132h-316a56 56 0 0 0 -56 56v268.42c0 21.89-32.88 23.05-34 1.19 0-1.25 0-302.61 0-301.61a56 56 0 0 1 56-56h318a32 32 0 0 1 32 32z" fill="#e0b7a3"/><path d="m430 132v32h-328a16 16 0 0 1 0-32z" fill="#a07765"/><path d="m351.06 52.13c0 58 0 32.87-.06 111.87h-236.06v-111.87a28.69 28.69 0 0 1 28.69-28.69h178.74a28.69 28.69 0 0 1 28.69 28.69z" fill="#cdfdaa"/><path d="m334.65 39.56c-15.3 58.44-52.92 101.93-100.83 124.44h-118.88v-111.87a28.69 28.69 0 0 1 28.69-28.69h178.74a12.79 12.79 0 0 1 12.28 16.12z" fill="#ddfdc5"/><path d="m488 284v84h-98a32 32 0 0 1 -32-32v-20a32 32 0 0 1 32-32z" fill="#a07765"/><path d="m143.63 23.44h45.88a74.57 74.57 0 0 1 -74.57 74.56v-45.87a28.69 28.69 0 0 1 28.69-28.69z" fill="#c4f788"/><path d="m351.06 52.13-.06 45.87a74.57 74.57 0 0 1 -74.55-74.56h45.88a28.69 28.69 0 0 1 28.73 28.69z" fill="#b5f26d"/><path d="m334.65 39.56a204.21 204.21 0 0 1 -19.84 49.05 74.54 74.54 0 0 1 -38.32-65.17h46.75a12.82 12.82 0 0 1 11.41 16.12z" fill="#c4f788"/><path d="m456 148h-10v-16a48.05 48.05 0 0 0 -48-48 16 16 0 0 0 0 32 16 16 0 0 1 16 16v16h-47c0-24.5 0-80.21.05-95.87a44.74 44.74 0 0 0 -44.68-44.69h-178.74a44.74 44.74 0 0 0 -44.69 44.69v31.87h-18.94a72.08 72.08 0 0 0 -72 72v300a48.05 48.05 0 0 0 48 48h400a48.05 48.05 0 0 0 48-48v-260a48.05 48.05 0 0 0 -48-48zm16 204h-82a16 16 0 0 1 -16-16v-20a16 16 0 0 1 16-16h82zm-341.06-204v-35.42a90.79 90.79 0 0 0 73.15-73.14h57.82a90.82 90.82 0 0 0 73.09 73.14v35.42zm204.12-95.88v27.64a58.81 58.81 0 0 1 -40.31-40.32h27.64a12.7 12.7 0 0 1 12.67 12.68zm-191.43-12.68h27.64a58.8 58.8 0 0 1 -40.33 40.32v-27.63a12.7 12.7 0 0 1 12.69-12.69zm312.37 432.56h-400a16 16 0 0 1 -16-16v-300a40 40 0 0 1 40-40h18.94v32.3a16 16 0 0 0 3.06 31.7h354a16 16 0 0 1 16 16v72h-82a48.05 48.05 0 0 0 -48 48v20a48.05 48.05 0 0 0 48 48h82v72a16 16 0 0 1 -16 16zm-314-248a16 16 0 0 1 -16 16h-24a16 16 0 0 1 0-32h24a16 16 0 0 1 16 16zm100 0a16 16 0 0 1 -16 16h-24a16 16 0 0 1 0-32h24a16 16 0 0 1 16 16zm-100 204a16 16 0 0 1 -16 16h-24a16 16 0 0 1 0-32h24a16 16 0 0 1 16 16zm100 0a16 16 0 0 1 -16 16h-24a16 16 0 0 1 0-32h24a16 16 0 0 1 16 16zm7-320v6.21a16 16 0 1 1 -32 0v-6.21a16 16 0 0 1 32 0z" fill="#555c79"/></g></svg>